<?xml version="1.0" encoding="UTF-8"?><svg xmlns="http://www.w3.org/2000/svg" style="display: none;"><symbol id="telegram" viewBox="0 0 496 512"><path d="M248 8C111 8 0 119 0 256S111 504 248 504 496 392.1 496 256 384.1 8 248 8zM362.1 176.7c-3.732 39.22-19.88 134.4-28.1 178.3-3.476 18.58-10.32 24.82-16.95 25.42-14.4 1.326-25.34-9.517-39.29-18.66-21.83-14.31-34.16-23.22-55.35-37.18-24.49-16.14-8.612-25 5.342-39.5 3.652-3.793 67.11-61.51 68.33-66.75 .153-.655 .3-3.1-1.154-4.384s-3.59-.849-5.135-.5q-3.283 .746-104.6 69.14-14.85 10.19-26.89 9.934c-8.855-.191-25.89-5.006-38.55-9.123-15.53-5.048-27.88-7.717-26.8-16.29q.84-6.7 18.45-13.7 108.4-47.25 144.6-62.3c68.87-28.65 83.18-33.62 92.51-33.79 2.052-.034 6.639 .474 9.61 2.885a10.45 10.45 0 0 1 3.53 6.716A43.76 43.76 0 0 1 362.1 176.7z"/></symbol><symbol id="twitter" viewBox="0 0 512 512"><path d="M459.4 151.7c.325 4.548 .325 9.097 .325 13.65 0 138.7-105.6 298.6-298.6 298.6-59.45 0-114.7-17.22-161.1-47.11 8.447 .974 16.57 1.299 25.34 1.299 49.06 0 94.21-16.57 130.3-44.83-46.13-.975-84.79-31.19-98.11-72.77 6.498 .974 12.99 1.624 19.82 1.624 9.421 0 18.84-1.3 27.61-3.573-48.08-9.747-84.14-51.98-84.14-102.1v-1.299c13.97 7.797 30.21 12.67 47.43 13.32-28.26-18.84-46.78-51.01-46.78-87.39 0-19.49 5.197-37.36 14.29-52.95 51.65 63.67 129.3 105.3 216.4 109.8-1.624-7.797-2.599-15.92-2.599-24.04 0-57.83 46.78-104.9 104.9-104.9 30.21 0 57.5 12.67 76.67 33.14 23.72-4.548 46.46-13.32 66.6-25.34-7.798 24.37-24.37 44.83-46.13 57.83 21.12-2.273 41.58-8.122 60.43-16.24-14.29 20.79-32.16 39.31-52.63 54.25z"/></symbol><symbol id="youtube" viewBox="0 0 576 512"><path d="M549.7 124.1c-6.281-23.65-24.79-42.28-48.28-48.6C458.8 64 288 64 288 64S117.2 64 74.63 75.49c-23.5 6.322-42 24.95-48.28 48.6-11.41 42.87-11.41 132.3-11.41 132.3s0 89.44 11.41 132.3c6.281 23.65 24.79 41.5 48.28 47.82C117.2 448 288 448 288 448s170.8 0 213.4-11.49c23.5-6.321 42-24.17 48.28-47.82 11.41-42.87 11.41-132.3 11.41-132.3s0-89.44-11.41-132.3zm-317.5 213.5V175.2l142.7 81.21-142.7 81.2z"/></symbol><symbol id="moon" viewBox="0 0 512 512"><path d="M421.6 379.9c-.6641 0-1.35 .0625-2.049 .1953c-11.24 2.143-22.37 3.17-33.32 3.17c-94.81 0-174.1-77.14-174.1-175.5c0-63.19 33.79-121.3 88.73-152.6c8.467-4.812 6.339-17.66-3.279-19.44c-11.2-2.078-29.53-3.746-40.9-3.746C132.3 31.1 32 132.2 32 256c0 123.6 100.1 224 223.8 224c69.04 0 132.1-31.45 173.8-82.93C435.3 389.1 429.1 379.9 421.6 379.9zM255.8 432C158.9 432 80 353 80 256c0-76.32 48.77-141.4 116.7-165.8C175.2 125 163.2 165.6 163.2 207.8c0 99.44 65.13 183.9 154.9 212.8C298.5 428.1 277.4 432 255.8 432z"/></symbol><symbol id="sun" viewBox="0 0 512 512"><path d="M505.2 324.8l-47.73-68.78l47.75-68.81c7.359-10.62 8.797-24.12 3.844-36.06c-4.969-11.94-15.52-20.44-28.22-22.72l-82.39-14.88l-14.89-82.41c-2.281-12.72-10.76-23.25-22.69-28.22c-11.97-4.936-25.42-3.498-36.12 3.844L256 54.49L187.2 6.709C176.5-.6016 163.1-2.039 151.1 2.896c-11.92 4.971-20.4 15.5-22.7 28.19l-14.89 82.44L31.15 128.4C18.42 130.7 7.854 139.2 2.9 151.2C-2.051 163.1-.5996 176.6 6.775 187.2l47.73 68.78l-47.75 68.81c-7.359 10.62-8.795 24.12-3.844 36.06c4.969 11.94 15.52 20.44 28.22 22.72l82.39 14.88l14.89 82.41c2.297 12.72 10.78 23.25 22.7 28.22c11.95 4.906 25.44 3.531 36.09-3.844L256 457.5l68.83 47.78C331.3 509.7 338.8 512 346.3 512c4.906 0 9.859-.9687 14.56-2.906c11.92-4.969 20.4-15.5 22.7-28.19l14.89-82.44l82.37-14.88c12.73-2.281 23.3-10.78 28.25-22.75C514.1 348.9 512.6 335.4 505.2 324.8zM456.8 339.2l-99.61 18l-18 99.63L256 399.1L172.8 456.8l-18-99.63l-99.61-18L112.9 255.1L55.23 172.8l99.61-18l18-99.63L256 112.9l83.15-57.75l18.02 99.66l99.61 18L399.1 255.1L456.8 339.2zM256 143.1c-61.85 0-111.1 50.14-111.1 111.1c0 61.85 50.15 111.1 111.1 111.1s111.1-50.14 111.1-111.1C367.1 194.1 317.8 143.1 256 143.1zM256 319.1c-35.28 0-63.99-28.71-63.99-63.99S220.7 192 256 192s63.99 28.71 63.99 63.1S291.3 319.1 256 319.1z"/></symbol><symbol id="angle-down" viewBox="0 0 384 512"><path d="M192 384c-8.188 0-16.38-3.125-22.62-9.375l-160-160c-12.5-12.5-12.5-32.75 0-45.25s32.75-12.5 45.25 0L192 306.8l137.4-137.4c12.5-12.5 32.75-12.5 45.25 0s12.5 32.75 0 45.25l-160 160C208.4 380.9 200.2 384 192 384z"/></symbol><symbol id="bars" viewBox="0 0 448 512"><path d="M0 96C0 78.33 14.33 64 32 64H416C433.7 64 448 78.33 448 96C448 113.7 433.7 128 416 128H32C14.33 128 0 113.7 0 96zM0 256C0 238.3 14.33 224 32 224H416C433.7 224 448 238.3 448 256C448 273.7 433.7 288 416 288H32C14.33 288 0 273.7 0 256zM416 448H32C14.33 448 0 433.7 0 416C0 398.3 14.33 384 32 384H416C433.7 384 448 398.3 448 416C448 433.7 433.7 448 416 448z"/></symbol><symbol id="circle-chevron-up" viewBox="0 0 512 512"><path d="M256 0C114.6 0 0 114.6 0 256c0 141.4 114.6 256 256 256s256-114.6 256-256C512 114.6 397.4 0 256 0zM390.6 310.6c-12.5 12.5-32.75 12.5-45.25 0L256 221.3L166.6 310.6c-12.5 12.5-32.75 12.5-45.25 0s-12.5-32.75 0-45.25l112-112C239.6 147.1 247.8 144 256 144s16.38 3.125 22.62 9.375l112 112C403.1 277.9 403.1 298.1 390.6 310.6z"/></symbol><symbol id="heart" viewBox="0 0 512 512"><path d="M0 190.9V185.1C0 115.2 50.52 55.58 119.4 44.1C164.1 36.51 211.4 51.37 244 84.02L256 96L267.1 84.02C300.6 51.37 347 36.51 392.6 44.1C461.5 55.58 512 115.2 512 185.1V190.9C512 232.4 494.8 272.1 464.4 300.4L283.7 469.1C276.2 476.1 266.3 480 256 480C245.7 480 235.8 476.1 228.3 469.1L47.59 300.4C17.23 272.1 .0003 232.4 .0003 190.9L0 190.9z"/></symbol><symbol id="magnifying-glass" viewBox="0 0 512 512"><path d="M500.3 443.7l-119.7-119.7c27.22-40.41 40.65-90.9 33.46-144.7C401.8 87.79 326.8 13.32 235.2 1.723C99.01-15.51-15.51 99.01 1.724 235.2c11.6 91.64 86.08 166.7 177.6 178.9c53.8 7.189 104.3-6.236 144.7-33.46l119.7 119.7c15.62 15.62 40.95 15.62 56.57 0C515.9 484.7 515.9 459.3 500.3 443.7zM79.1 208c0-70.58 57.42-128 128-128s128 57.42 128 128c0 70.58-57.42 128-128 128S79.1 278.6 79.1 208z"/></symbol><symbol id="xmark" viewBox="0 0 320 512"><path d="M310.6 361.4c12.5 12.5 12.5 32.75 0 45.25C304.4 412.9 296.2 416 288 416s-16.38-3.125-22.62-9.375L160 301.3L54.63 406.6C48.38 412.9 40.19 416 32 416S15.63 412.9 9.375 406.6c-12.5-12.5-12.5-32.75 0-45.25l105.4-105.4L9.375 150.6c-12.5-12.5-12.5-32.75 0-45.25s32.75-12.5 45.25 0L160 210.8l105.4-105.4c12.5-12.5 32.75-12.5 45.25 0s12.5 32.75 0 45.25l-105.4 105.4L310.6 361.4z"/></symbol></svg>