<?xml version="1.0" encoding="UTF-8"?><svg xmlns="http://www.w3.org/2000/svg" style="display: none;"><symbol id="telegram" viewBox="0 0 496 512"><path d="M248 8C111 8 0 119 0 256S111 504 248 504 496 392.1 496 256 384.1 8 248 8zM362.1 176.7c-3.732 39.22-19.88 134.4-28.1 178.3-3.476 18.58-10.32 24.82-16.95 25.42-14.4 1.326-25.34-9.517-39.29-18.66-21.83-14.31-34.16-23.22-55.35-37.18-24.49-16.14-8.612-25 5.342-39.5 3.652-3.793 67.11-61.51 68.33-66.75 .153-.655 .3-3.1-1.154-4.384s-3.59-.849-5.135-.5q-3.283 .746-104.6 69.14-14.85 10.19-26.89 9.934c-8.855-.191-25.89-5.006-38.55-9.123-15.53-5.048-27.88-7.717-26.8-16.29q.84-6.7 18.45-13.7 108.4-47.25 144.6-62.3c68.87-28.65 83.18-33.62 92.51-33.79 2.052-.034 6.639 .474 9.61 2.885a10.45 10.45 0 0 1 3.53 6.716A43.76 43.76 0 0 1 362.1 176.7z"/></symbol><symbol id="twitter" viewBox="0 0 512 512"><path d="M459.4 151.7c.325 4.548 .325 9.097 .325 13.65 0 138.7-105.6 298.6-298.6 298.6-59.45 0-114.7-17.22-161.1-47.11 8.447 .974 16.57 1.299 25.34 1.299 49.06 0 94.21-16.57 130.3-44.83-46.13-.975-84.79-31.19-98.11-72.77 6.498 .974 12.99 1.624 19.82 1.624 9.421 0 18.84-1.3 27.61-3.573-48.08-9.747-84.14-51.98-84.14-102.1v-1.299c13.97 7.797 30.21 12.67 47.43 13.32-28.26-18.84-46.78-51.01-46.78-87.39 0-19.49 5.197-37.36 14.29-52.95 51.65 63.67 129.3 105.3 216.4 109.8-1.624-7.797-2.599-15.92-2.599-24.04 0-57.83 46.78-104.9 104.9-104.9 30.21 0 57.5 12.67 76.67 33.14 23.72-4.548 46.46-13.32 66.6-25.34-7.798 24.37-24.37 44.83-46.13 57.83 21.12-2.273 41.58-8.122 60.43-16.24-14.29 20.79-32.16 39.31-52.63 54.25z"/></symbol><symbol id="youtube" viewBox="0 0 576 512"><path d="M549.7 124.1c-6.281-23.65-24.79-42.28-48.28-48.6C458.8 64 288 64 288 64S117.2 64 74.63 75.49c-23.5 6.322-42 24.95-48.28 48.6-11.41 42.87-11.41 132.3-11.41 132.3s0 89.44 11.41 132.3c6.281 23.65 24.79 41.5 48.28 47.82C117.2 448 288 448 288 448s170.8 0 213.4-11.49c23.5-6.321 42-24.17 48.28-47.82 11.41-42.87 11.41-132.3 11.41-132.3s0-89.44-11.41-132.3zm-317.5 213.5V175.2l142.7 81.21-142.7 81.2z"/></symbol><symbol id="moon" viewBox="0 0 512 512"><path d="M421.6 379.9c-.6641 0-1.35 .0625-2.049 .1953c-11.24 2.143-22.37 3.17-33.32 3.17c-94.81 0-174.1-77.14-174.1-175.5c0-63.19 33.79-121.3 88.73-152.6c8.467-4.812 6.339-17.66-3.279-19.44c-11.2-2.078-29.53-3.746-40.9-3.746C132.3 31.1 32 132.2 32 256c0 123.6 100.1 224 223.8 224c69.04 0 132.1-31.45 173.8-82.93C435.3 389.1 429.1 379.9 421.6 379.9zM255.8 432C158.9 432 80 353 80 256c0-76.32 48.77-141.4 116.7-165.8C175.2 125 163.2 165.6 163.2 207.8c0 99.44 65.13 183.9 154.9 212.8C298.5 428.1 277.4 432 255.8 432z"/></symbol><symbol id="sun" viewBox="0 0 512 512"><path d="M505.2 324.8l-47.73-68.78l47.75-68.81c7.359-10.62 8.797-24.12 3.844-36.06c-4.969-11.94-15.52-20.44-28.22-22.72l-82.39-14.88l-14.89-82.41c-2.281-12.72-10.76-23.25-22.69-28.22c-11.97-4.936-25.42-3.498-36.12 3.844L256 54.49L187.2 6.709C176.5-.6016 163.1-2.039 151.1 2.896c-11.92 4.971-20.4 15.5-22.7 28.19l-14.89 82.44L31.15 128.4C18.42 130.7 7.854 139.2 2.9 151.2C-2.051 163.1-.5996 176.6 6.775 187.2l47.73 68.78l-47.75 68.81c-7.359 10.62-8.795 24.12-3.844 36.06c4.969 11.94 15.52 20.44 28.22 22.72l82.39 14.88l14.89 82.41c2.297 12.72 10.78 23.25 22.7 28.22c11.95 4.906 25.44 3.531 36.09-3.844L256 457.5l68.83 47.78C331.3 509.7 338.8 512 346.3 512c4.906 0 9.859-.9687 14.56-2.906c11.92-4.969 20.4-15.5 22.7-28.19l14.89-82.44l82.37-14.88c12.73-2.281 23.3-10.78 28.25-22.75C514.1 348.9 512.6 335.4 505.2 324.8zM456.8 339.2l-99.61 18l-18 99.63L256 399.1L172.8 456.8l-18-99.63l-99.61-18L112.9 255.1L55.23 172.8l99.61-18l18-99.63L256 112.9l83.15-57.75l18.02 99.66l99.61 18L399.1 255.1L456.8 339.2zM256 143.1c-61.85 0-111.1 50.14-111.1 111.1c0 61.85 50.15 111.1 111.1 111.1s111.1-50.14 111.1-111.1C367.1 194.1 317.8 143.1 256 143.1zM256 319.1c-35.28 0-63.99-28.71-63.99-63.99S220.7 192 256 192s63.99 28.71 63.99 63.1S291.3 319.1 256 319.1z"/></symbol><symbol id="search-history" viewBox="6 0 44 44"><path d="M15.7 25.9Q16.85 27.1 18.425 27.675Q20 28.25 21.8 28.25Q25.75 28.25 28.525 25.475Q31.3 22.7 31.3 18.7Q31.3 14.75 28.525 11.95Q25.75 9.15 21.8 9.15Q17.8 9.15 15.025 11.85Q12.25 14.55 12.2 18.45L14.05 16.6Q14.55 16.1 15.275 16.1Q16 16.1 16.6 16.65Q17.15 17.15 17.125 17.925Q17.1 18.7 16.6 19.2L11.85 23.95Q11.2 24.6 10.45 24.6Q9.7 24.6 9.15 23.95L4.35 19.25Q3.85 18.7 3.85 17.925Q3.85 17.15 4.4 16.65Q4.9 16.1 5.675 16.125Q6.45 16.15 7 16.6L8.35 18.05Q8.6 12.65 12.425 8.975Q16.25 5.3 21.8 5.3Q27.4 5.3 31.275 9.2Q35.15 13.1 35.15 18.7Q35.15 20.95 34.475 22.95Q33.8 24.95 32.45 26.7L44.4 38.55Q45 39.15 44.975 39.975Q44.95 40.8 44.4 41.3Q43.8 41.95 42.975 41.925Q42.15 41.9 41.55 41.3L29.7 29.5Q28.15 30.7 26.125 31.425Q24.1 32.15 21.85 32.15Q19.3 32.15 17.05 31.275Q14.8 30.4 13.1 28.75Q12.55 28.4 12.475 27.7Q12.4 27 12.75 26.45Q13.2 25.6 14.075 25.5Q14.95 25.4 15.7 25.9Z"/></symbol><symbol id="arrow-down" viewBox="0 0 384 512"><path d="M374.6 310.6l-160 160C208.4 476.9 200.2 480 192 480s-16.38-3.125-22.62-9.375l-160-160c-12.5-12.5-12.5-32.75 0-45.25s32.75-12.5 45.25 0L160 370.8V64c0-17.69 14.33-31.1 31.1-31.1S224 46.31 224 64v306.8l105.4-105.4c12.5-12.5 32.75-12.5 45.25 0S387.1 298.1 374.6 310.6z"/></symbol><symbol id="arrow-up" viewBox="0 0 384 512"><path d="M374.6 246.6C368.4 252.9 360.2 256 352 256s-16.38-3.125-22.62-9.375L224 141.3V448c0 17.69-14.33 31.1-31.1 31.1S160 465.7 160 448V141.3L54.63 246.6c-12.5 12.5-32.75 12.5-45.25 0s-12.5-32.75 0-45.25l160-160c12.5-12.5 32.75-12.5 45.25 0l160 160C387.1 213.9 387.1 234.1 374.6 246.6z"/></symbol><symbol id="arrow-up-right-from-square" viewBox="0 0 448 512"><path d="M256 64C256 46.33 270.3 32 288 32H415.1C415.1 32 415.1 32 415.1 32C420.3 32 424.5 32.86 428.2 34.43C431.1 35.98 435.5 38.27 438.6 41.3C438.6 41.35 438.6 41.4 438.7 41.44C444.9 47.66 447.1 55.78 448 63.9C448 63.94 448 63.97 448 64V192C448 209.7 433.7 224 416 224C398.3 224 384 209.7 384 192V141.3L214.6 310.6C202.1 323.1 181.9 323.1 169.4 310.6C156.9 298.1 156.9 277.9 169.4 265.4L338.7 96H288C270.3 96 256 81.67 256 64V64zM0 128C0 92.65 28.65 64 64 64H160C177.7 64 192 78.33 192 96C192 113.7 177.7 128 160 128H64V416H352V320C352 302.3 366.3 288 384 288C401.7 288 416 302.3 416 320V416C416 451.3 387.3 480 352 480H64C28.65 480 0 451.3 0 416V128z"/></symbol><symbol id="bars" viewBox="0 0 448 512"><path d="M0 96C0 78.33 14.33 64 32 64H416C433.7 64 448 78.33 448 96C448 113.7 433.7 128 416 128H32C14.33 128 0 113.7 0 96zM0 256C0 238.3 14.33 224 32 224H416C433.7 224 448 238.3 448 256C448 273.7 433.7 288 416 288H32C14.33 288 0 273.7 0 256zM416 448H32C14.33 448 0 433.7 0 416C0 398.3 14.33 384 32 384H416C433.7 384 448 398.3 448 416C448 433.7 433.7 448 416 448z"/></symbol><symbol id="bars-progress" viewBox="0 0 512 512"><path d="M464 64C490.5 64 512 85.49 512 112V176C512 202.5 490.5 224 464 224H48C21.49 224 0 202.5 0 176V112C0 85.49 21.49 64 48 64H464zM448 128H320V160H448V128zM464 288C490.5 288 512 309.5 512 336V400C512 426.5 490.5 448 464 448H48C21.49 448 0 426.5 0 400V336C0 309.5 21.49 288 48 288H464zM192 352V384H448V352H192z"/></symbol><symbol id="check-double" viewBox="0 0 448 512"><path d="M182.6 246.6C170.1 259.1 149.9 259.1 137.4 246.6L57.37 166.6C44.88 154.1 44.88 133.9 57.37 121.4C69.87 108.9 90.13 108.9 102.6 121.4L159.1 178.7L297.4 41.37C309.9 28.88 330.1 28.88 342.6 41.37C355.1 53.87 355.1 74.13 342.6 86.63L182.6 246.6zM182.6 470.6C170.1 483.1 149.9 483.1 137.4 470.6L9.372 342.6C-3.124 330.1-3.124 309.9 9.372 297.4C21.87 284.9 42.13 284.9 54.63 297.4L159.1 402.7L393.4 169.4C405.9 156.9 426.1 156.9 438.6 169.4C451.1 181.9 451.1 202.1 438.6 214.6L182.6 470.6z"/></symbol><symbol id="circle-check" viewBox="0 0 512 512"><path d="M0 256C0 114.6 114.6 0 256 0C397.4 0 512 114.6 512 256C512 397.4 397.4 512 256 512C114.6 512 0 397.4 0 256zM371.8 211.8C382.7 200.9 382.7 183.1 371.8 172.2C360.9 161.3 343.1 161.3 332.2 172.2L224 280.4L179.8 236.2C168.9 225.3 151.1 225.3 140.2 236.2C129.3 247.1 129.3 264.9 140.2 275.8L204.2 339.8C215.1 350.7 232.9 350.7 243.8 339.8L371.8 211.8z"/></symbol><symbol id="circle-chevron-up" viewBox="0 0 512 512"><path d="M256 0C114.6 0 0 114.6 0 256c0 141.4 114.6 256 256 256s256-114.6 256-256C512 114.6 397.4 0 256 0zM390.6 310.6c-12.5 12.5-32.75 12.5-45.25 0L256 221.3L166.6 310.6c-12.5 12.5-32.75 12.5-45.25 0s-12.5-32.75 0-45.25l112-112C239.6 147.1 247.8 144 256 144s16.38 3.125 22.62 9.375l112 112C403.1 277.9 403.1 298.1 390.6 310.6z"/></symbol><symbol id="circle-xmark" viewBox="0 0 512 512"><path d="M0 256C0 114.6 114.6 0 256 0C397.4 0 512 114.6 512 256C512 397.4 397.4 512 256 512C114.6 512 0 397.4 0 256zM175 208.1L222.1 255.1L175 303C165.7 312.4 165.7 327.6 175 336.1C184.4 346.3 199.6 346.3 208.1 336.1L255.1 289.9L303 336.1C312.4 346.3 327.6 346.3 336.1 336.1C346.3 327.6 346.3 312.4 336.1 303L289.9 255.1L336.1 208.1C346.3 199.6 346.3 184.4 336.1 175C327.6 165.7 312.4 165.7 303 175L255.1 222.1L208.1 175C199.6 165.7 184.4 165.7 175 175C165.7 184.4 165.7 199.6 175 208.1V208.1z"/></symbol><symbol id="compress" viewBox="0 0 448 512"><path d="M128 320H32c-17.69 0-32 14.31-32 32s14.31 32 32 32h64v64c0 17.69 14.31 32 32 32s32-14.31 32-32v-96C160 334.3 145.7 320 128 320zM416 320h-96c-17.69 0-32 14.31-32 32v96c0 17.69 14.31 32 32 32s32-14.31 32-32v-64h64c17.69 0 32-14.31 32-32S433.7 320 416 320zM320 192h96c17.69 0 32-14.31 32-32s-14.31-32-32-32h-64V64c0-17.69-14.31-32-32-32s-32 14.31-32 32v96C288 177.7 302.3 192 320 192zM128 32C110.3 32 96 46.31 96 64v64H32C14.31 128 0 142.3 0 160s14.31 32 32 32h96c17.69 0 32-14.31 32-32V64C160 46.31 145.7 32 128 32z"/></symbol><symbol id="copy" viewBox="0 0 512 512"><path d="M384 96L384 0h-112c-26.51 0-48 21.49-48 48v288c0 26.51 21.49 48 48 48H464c26.51 0 48-21.49 48-48V128h-95.1C398.4 128 384 113.6 384 96zM416 0v96h96L416 0zM192 352V128h-144c-26.51 0-48 21.49-48 48v288c0 26.51 21.49 48 48 48h192c26.51 0 48-21.49 48-48L288 416h-32C220.7 416 192 387.3 192 352z"/></symbol><symbol id="database" viewBox="0 0 448 512"><path d="M448 80V128C448 172.2 347.7 208 224 208C100.3 208 0 172.2 0 128V80C0 35.82 100.3 0 224 0C347.7 0 448 35.82 448 80zM393.2 214.7C413.1 207.3 433.1 197.8 448 186.1V288C448 332.2 347.7 368 224 368C100.3 368 0 332.2 0 288V186.1C14.93 197.8 34.02 207.3 54.85 214.7C99.66 230.7 159.5 240 224 240C288.5 240 348.3 230.7 393.2 214.7V214.7zM54.85 374.7C99.66 390.7 159.5 400 224 400C288.5 400 348.3 390.7 393.2 374.7C413.1 367.3 433.1 357.8 448 346.1V432C448 476.2 347.7 512 224 512C100.3 512 0 476.2 0 432V346.1C14.93 357.8 34.02 367.3 54.85 374.7z"/></symbol><symbol id="download" viewBox="0 0 512 512"><path d="M480 352h-133.5l-45.25 45.25C289.2 409.3 273.1 416 256 416s-33.16-6.656-45.25-18.75L165.5 352H32c-17.67 0-32 14.33-32 32v96c0 17.67 14.33 32 32 32h448c17.67 0 32-14.33 32-32v-96C512 366.3 497.7 352 480 352zM432 456c-13.2 0-24-10.8-24-24c0-13.2 10.8-24 24-24s24 10.8 24 24C456 445.2 445.2 456 432 456zM233.4 374.6C239.6 380.9 247.8 384 256 384s16.38-3.125 22.62-9.375l128-128c12.49-12.5 12.49-32.75 0-45.25c-12.5-12.5-32.76-12.5-45.25 0L288 274.8V32c0-17.67-14.33-32-32-32C238.3 0 224 14.33 224 32v242.8L150.6 201.4c-12.49-12.5-32.75-12.5-45.25 0c-12.49 12.5-12.49 32.75 0 45.25L233.4 374.6z"/></symbol><symbol id="expand" viewBox="0 0 448 512"><path d="M128 32H32C14.31 32 0 46.31 0 64v96c0 17.69 14.31 32 32 32s32-14.31 32-32V96h64c17.69 0 32-14.31 32-32S145.7 32 128 32zM416 32h-96c-17.69 0-32 14.31-32 32s14.31 32 32 32h64v64c0 17.69 14.31 32 32 32s32-14.31 32-32V64C448 46.31 433.7 32 416 32zM128 416H64v-64c0-17.69-14.31-32-32-32s-32 14.31-32 32v96c0 17.69 14.31 32 32 32h96c17.69 0 32-14.31 32-32S145.7 416 128 416zM416 320c-17.69 0-32 14.31-32 32v64h-64c-17.69 0-32 14.31-32 32s14.31 32 32 32h96c17.69 0 32-14.31 32-32v-96C448 334.3 433.7 320 416 320z"/></symbol><symbol id="file" viewBox="0 0 384 512"><path d="M0 64C0 28.65 28.65 0 64 0H224V128C224 145.7 238.3 160 256 160H384V448C384 483.3 355.3 512 320 512H64C28.65 512 0 483.3 0 448V64zM256 128V0L384 128H256z"/></symbol><symbol id="file-shield" viewBox="0 0 576 512"><path d="M0 64C0 28.65 28.65 0 64 0H224V128C224 145.7 238.3 160 256 160H384V207L291.2 244.2C269.9 252.7 256 273.3 256 296.2C256 352.7 274.9 444.2 350.2 504.4C341.2 509.3 330.9 512 320 512H64C28.65 512 0 483.3 0 448V64zM256 128V0L384 128H256zM423.1 225.7C428.8 223.4 435.2 223.4 440.9 225.7L560.9 273.7C570 277.4 576 286.2 576 296C576 359.3 550.1 464.8 441.2 510.2C435.3 512.6 428.7 512.6 422.8 510.2C313.9 464.8 288 359.3 288 296C288 286.2 293.1 277.4 303.1 273.7L423.1 225.7zM432 273.8V461.7C500.2 428.7 523.5 362.7 527.4 311.1L432 273.8z"/></symbol><symbol id="heart" viewBox="0 0 512 512"><path d="M0 190.9V185.1C0 115.2 50.52 55.58 119.4 44.1C164.1 36.51 211.4 51.37 244 84.02L256 96L267.1 84.02C300.6 51.37 347 36.51 392.6 44.1C461.5 55.58 512 115.2 512 185.1V190.9C512 232.4 494.8 272.1 464.4 300.4L283.7 469.1C276.2 476.1 266.3 480 256 480C245.7 480 235.8 476.1 228.3 469.1L47.59 300.4C17.23 272.1 .0003 232.4 .0003 190.9L0 190.9z"/></symbol><symbol id="j" viewBox="0 0 320 512"><path d="M320 64.01v259.4c0 86.36-71.78 156.6-160 156.6s-160-70.26-160-156.6V288c0-17.67 14.31-32 32-32s32 14.33 32 32v35.38c0 51.08 43.06 92.63 96 92.63s96-41.55 96-92.63V64.01c0-17.67 14.31-32 32-32S320 46.34 320 64.01z"/></symbol><symbol id="link" viewBox="0 0 640 512"><path d="M172.5 131.1C228.1 75.51 320.5 75.51 376.1 131.1C426.1 181.1 433.5 260.8 392.4 318.3L391.3 319.9C381 334.2 361 337.6 346.7 327.3C332.3 317 328.9 297 339.2 282.7L340.3 281.1C363.2 249 359.6 205.1 331.7 177.2C300.3 145.8 249.2 145.8 217.7 177.2L105.5 289.5C73.99 320.1 73.99 372 105.5 403.5C133.3 431.4 177.3 435 209.3 412.1L210.9 410.1C225.3 400.7 245.3 404 255.5 418.4C265.8 432.8 262.5 452.8 248.1 463.1L246.5 464.2C188.1 505.3 110.2 498.7 60.21 448.8C3.741 392.3 3.741 300.7 60.21 244.3L172.5 131.1zM467.5 380C411 436.5 319.5 436.5 263 380C213 330 206.5 251.2 247.6 193.7L248.7 192.1C258.1 177.8 278.1 174.4 293.3 184.7C307.7 194.1 311.1 214.1 300.8 229.3L299.7 230.9C276.8 262.1 280.4 306.9 308.3 334.8C339.7 366.2 390.8 366.2 422.3 334.8L534.5 222.5C566 191 566 139.1 534.5 108.5C506.7 80.63 462.7 76.99 430.7 99.9L429.1 101C414.7 111.3 394.7 107.1 384.5 93.58C374.2 79.2 377.5 59.21 391.9 48.94L393.5 47.82C451 6.731 529.8 13.25 579.8 63.24C636.3 119.7 636.3 211.3 579.8 267.7L467.5 380z"/></symbol><symbol id="magnifying-glass" viewBox="0 0 512 512"><path d="M500.3 443.7l-119.7-119.7c27.22-40.41 40.65-90.9 33.46-144.7C401.8 87.79 326.8 13.32 235.2 1.723C99.01-15.51-15.51 99.01 1.724 235.2c11.6 91.64 86.08 166.7 177.6 178.9c53.8 7.189 104.3-6.236 144.7-33.46l119.7 119.7c15.62 15.62 40.95 15.62 56.57 0C515.9 484.7 515.9 459.3 500.3 443.7zM79.1 208c0-70.58 57.42-128 128-128s128 57.42 128 128c0 70.58-57.42 128-128 128S79.1 278.6 79.1 208z"/></symbol><symbol id="rocket" viewBox="0 0 512 512"><path d="M156.6 384.9L125.7 353.1C117.2 345.5 114.2 333.1 117.1 321.8C120.1 312.9 124.1 301.3 129.8 288H24C15.38 288 7.414 283.4 3.146 275.9C-1.123 268.4-1.042 259.2 3.357 251.8L55.83 163.3C68.79 141.4 92.33 127.1 117.8 127.1H200C202.4 124 204.8 120.3 207.2 116.7C289.1-4.07 411.1-8.142 483.9 5.275C495.6 7.414 504.6 16.43 506.7 28.06C520.1 100.9 516.1 222.9 395.3 304.8C391.8 307.2 387.1 309.6 384 311.1V394.2C384 419.7 370.6 443.2 348.7 456.2L260.2 508.6C252.8 513 243.6 513.1 236.1 508.9C228.6 504.6 224 496.6 224 488V380.8C209.9 385.6 197.6 389.7 188.3 392.7C177.1 396.3 164.9 393.2 156.6 384.9V384.9zM384 167.1C406.1 167.1 424 150.1 424 127.1C424 105.9 406.1 87.1 384 87.1C361.9 87.1 344 105.9 344 127.1C344 150.1 361.9 167.1 384 167.1z"/></symbol><symbol id="trash" viewBox="0 0 448 512"><path d="M135.2 17.69C140.6 6.848 151.7 0 163.8 0H284.2C296.3 0 307.4 6.848 312.8 17.69L320 32H416C433.7 32 448 46.33 448 64C448 81.67 433.7 96 416 96H32C14.33 96 0 81.67 0 64C0 46.33 14.33 32 32 32H128L135.2 17.69zM394.8 466.1C393.2 492.3 372.3 512 346.9 512H101.1C75.75 512 54.77 492.3 53.19 466.1L31.1 128H416L394.8 466.1z"/></symbol><symbol id="upload" viewBox="0 0 512 512"><path d="M105.4 182.6c12.5 12.49 32.76 12.5 45.25 .001L224 109.3V352c0 17.67 14.33 32 32 32c17.67 0 32-14.33 32-32V109.3l73.38 73.38c12.49 12.49 32.75 12.49 45.25-.001c12.49-12.49 12.49-32.75 0-45.25l-128-128C272.4 3.125 264.2 0 256 0S239.6 3.125 233.4 9.375L105.4 137.4C92.88 149.9 92.88 170.1 105.4 182.6zM480 352h-160c0 35.35-28.65 64-64 64s-64-28.65-64-64H32c-17.67 0-32 14.33-32 32v96c0 17.67 14.33 32 32 32h448c17.67 0 32-14.33 32-32v-96C512 366.3 497.7 352 480 352zM432 456c-13.2 0-24-10.8-24-24c0-13.2 10.8-24 24-24s24 10.8 24 24C456 445.2 445.2 456 432 456z"/></symbol><symbol id="window-maximize" viewBox="0 0 512 512"><path d="M448 32C483.3 32 512 60.65 512 96V416C512 451.3 483.3 480 448 480H64C28.65 480 0 451.3 0 416V96C0 60.65 28.65 32 64 32H448zM96 96C78.33 96 64 110.3 64 128C64 145.7 78.33 160 96 160H416C433.7 160 448 145.7 448 128C448 110.3 433.7 96 416 96H96z"/></symbol><symbol id="window-minimize" viewBox="0 0 512 512"><path d="M0 448C0 430.3 14.33 416 32 416H480C497.7 416 512 430.3 512 448C512 465.7 497.7 480 480 480H32C14.33 480 0 465.7 0 448z"/></symbol><symbol id="xmark" viewBox="0 0 320 512"><path d="M310.6 361.4c12.5 12.5 12.5 32.75 0 45.25C304.4 412.9 296.2 416 288 416s-16.38-3.125-22.62-9.375L160 301.3L54.63 406.6C48.38 412.9 40.19 416 32 416S15.63 412.9 9.375 406.6c-12.5-12.5-12.5-32.75 0-45.25l105.4-105.4L9.375 150.6c-12.5-12.5-12.5-32.75 0-45.25s32.75-12.5 45.25 0L160 210.8l105.4-105.4c12.5-12.5 32.75-12.5 45.25 0s12.5 32.75 0 45.25l-105.4 105.4L310.6 361.4z"/></symbol></svg>